<?xml version="1.0" standalone="no"?>
<!DOCTYPE svg PUBLIC "-//W3C//DTD SVG 20010904//EN"
 "http://www.w3.org/TR/2001/REC-SVG-20010904/DTD/svg10.dtd">
<svg version="1.0" xmlns="http://www.w3.org/2000/svg"
 width="1042.000000pt" height="1042.000000pt" viewBox="0 0 1042.000000 1042.000000"
 preserveAspectRatio="xMidYMid meet">
<metadata>
Created by potrace 1.11, written by Peter Selinger 2001-2013
</metadata>
<g transform="translate(0.000000,1042.000000) scale(0.100000,-0.100000)"
fill="#000000" stroke="none">
<path d="M4540 9231 c-110 -35 -202 -115 -252 -220 -33 -69 -42 -109 -42 -181
0 -48 13 -214 19 -252 2 -13 7 -54 10 -93 3 -38 8 -86 10 -105 2 -19 7 -64 10
-100 4 -36 8 -81 10 -100 3 -19 7 -66 10 -105 3 -38 7 -81 10 -95 2 -14 6 -59
10 -100 3 -41 7 -88 9 -105 2 -16 7 -66 11 -110 4 -44 8 -93 10 -110 2 -16 7
-57 10 -90 3 -33 8 -81 10 -106 8 -65 14 -131 20 -221 4 -43 8 -86 10 -97 2
-10 6 -58 10 -107 4 -49 9 -102 11 -119 2 -16 6 -64 9 -105 6 -73 9 -108 20
-217 13 -138 16 -162 20 -213 11 -136 17 -197 21 -222 5 -33 3 -34 -76 -43
-36 -4 -69 -8 -74 -8 -5 -1 -12 9 -16 23 -64 210 -98 324 -205 690 -20 69 -50
170 -67 225 -31 106 -57 200 -63 225 -2 8 -13 51 -24 95 -12 44 -23 87 -25 95
-2 8 -21 77 -41 154 -20 76 -38 145 -40 155 -2 9 -29 111 -60 226 -31 116 -58
217 -60 225 -30 130 -73 276 -94 320 -32 68 -121 158 -184 188 -196 92 -404
47 -533 -116 -91 -116 -112 -245 -68 -413 81 -306 82 -312 88 -336 3 -10 23
-88 46 -173 22 -85 43 -162 45 -170 19 -77 28 -112 58 -225 19 -71 49 -184 66
-250 18 -66 81 -280 142 -475 60 -195 121 -393 136 -440 14 -47 36 -116 49
-153 l22 -68 -46 -20 c-26 -11 -65 -29 -87 -40 l-40 -19 -15 21 c-18 26 -230
383 -270 454 -37 67 -250 456 -293 536 -156 288 -260 458 -306 505 -143 143
-364 163 -537 48 -145 -97 -210 -257 -179 -445 5 -33 63 -160 95 -209 10 -14
30 -50 47 -80 50 -91 84 -153 103 -185 10 -16 33 -59 52 -95 20 -36 47 -85 60
-110 14 -25 41 -74 60 -110 42 -78 88 -161 138 -250 20 -36 39 -72 43 -80 4
-8 16 -28 26 -45 19 -32 180 -306 213 -365 18 -31 127 -219 153 -261 6 -10 30
-53 54 -96 25 -43 60 -101 78 -130 18 -29 33 -54 33 -57 0 -2 20 -39 45 -81
25 -42 47 -90 49 -108 3 -18 7 -45 10 -62 9 -59 17 -111 21 -140 2 -16 6 -43
9 -60 3 -16 14 -95 26 -175 12 -80 23 -157 26 -172 2 -16 6 -40 8 -55 5 -29
16 -104 21 -138 3 -22 11 -79 25 -170 5 -33 12 -78 15 -100 4 -22 8 -51 11
-65 2 -14 7 -47 10 -75 25 -208 132 -369 303 -459 110 -57 166 -67 408 -69
l215 -2 23 -65 c74 -214 232 -377 440 -451 l50 -18 -294 0 c-322 -1 -360 -6
-481 -63 -119 -57 -233 -192 -281 -333 -16 -48 -14 -37 -23 -111 -8 -61 -8
-62 -44 -68 -53 -8 -169 -67 -224 -112 -61 -51 -119 -125 -150 -194 -43 -91
-48 -120 -73 -390 -3 -36 -8 -78 -10 -95 -3 -28 -10 -95 -20 -190 -2 -22 -7
-71 -10 -110 -4 -38 -8 -81 -10 -95 -2 -14 -6 -56 -10 -95 -3 -38 -8 -88 -10
-110 -2 -22 -7 -67 -10 -100 -3 -33 -8 -80 -11 -104 -3 -24 -7 -65 -9 -91 l-4
-47 1855 0 1856 0 -7 73 c-3 41 -8 86 -10 101 -1 16 -6 62 -10 103 -4 41 -8
86 -10 100 -2 14 -6 59 -10 100 -4 41 -8 86 -10 100 -2 14 -6 57 -10 95 -3 39
-8 86 -10 105 -6 50 -14 135 -20 205 -3 33 -8 76 -10 95 -2 19 -7 67 -10 105
-13 151 -48 249 -126 353 -69 91 -184 168 -296 196 l-47 12 -13 85 c-29 182
-153 350 -315 424 -110 50 -150 55 -473 56 l-300 0 55 18 c101 32 191 87 265
158 50 49 105 118 105 132 0 6 4 11 8 11 10 0 52 92 76 166 l17 52 204 0 c112
1 226 4 252 8 113 14 255 93 337 186 88 100 129 216 162 460 l7 48 61 -64
c157 -162 372 -239 591 -213 136 17 321 108 562 275 51 36 272 211 293 232 8
8 31 28 50 44 61 50 149 128 329 295 141 131 157 146 310 290 73 69 146 137
160 151 15 14 60 57 101 95 41 39 117 108 169 155 52 47 99 90 105 95 6 6 63
56 126 111 143 126 154 138 180 197 69 156 -11 328 -180 389 -219 80 -463 67
-665 -34 -88 -45 -130 -76 -230 -171 -181 -171 -348 -300 -559 -427 -97 -59
-304 -166 -313 -162 -2 1 -26 -9 -55 -22 -144 -64 -311 -102 -466 -107 -135
-4 -250 -34 -351 -91 -30 -17 -52 -27 -49 -22 3 5 9 29 12 54 6 45 11 76 22
140 3 19 8 44 9 55 2 11 8 47 14 80 6 33 13 76 16 95 3 19 7 46 10 60 3 14 7
39 9 55 3 17 12 73 21 125 18 106 20 117 35 214 31 199 -6 363 -105 459 l-47
46 0 1336 c0 782 -4 1351 -10 1373 -5 20 -10 42 -11 47 -10 42 -60 119 -106
165 -113 112 -265 152 -421 110 -139 -37 -266 -172 -299 -318 -6 -27 -9 -531
-8 -1318 l2 -1275 -183 3 c-152 2 -183 6 -186 18 -3 8 -7 40 -11 70 -4 30 -8
66 -10 80 -2 14 -7 52 -11 85 -3 33 -8 67 -9 75 -2 8 -6 44 -10 80 -4 36 -8
72 -10 80 -2 8 -6 44 -10 80 -4 36 -8 72 -10 80 -2 8 -6 44 -10 80 -4 36 -8
72 -10 80 -2 8 -6 44 -10 80 -4 36 -8 72 -10 80 -2 8 -6 44 -10 80 -4 36 -9
73 -10 82 -2 9 -7 48 -10 85 -4 37 -8 75 -10 83 -3 8 -7 51 -10 95 -3 44 -8
91 -10 105 -5 24 -7 52 -20 210 -3 41 -8 82 -10 90 -2 8 -7 55 -10 103 -4 48
-8 96 -10 105 -1 9 -6 55 -10 102 -4 47 -8 92 -10 100 -2 8 -6 53 -10 99 -4
47 -8 92 -10 102 -2 10 -7 55 -10 101 -26 310 -33 354 -71 433 -89 184 -317
280 -514 216z"/>
</g>
</svg>
