<?xml version="1.0" encoding="utf-8"?>
<!-- Generator: Adobe Illustrator 21.1.0, SVG Export Plug-In . SVG Version: 6.00 Build 0)  -->
<svg version="1.1" id="Layer_1" xmlns="http://www.w3.org/2000/svg" xmlns:xlink="http://www.w3.org/1999/xlink" x="0px" y="0px"
	 viewBox="0 0 500 500" style="enable-background:new 0 0 500 500;" xml:space="preserve">
<style type="text/css">
	.st0{clip-path:url(#SVGID_2_);fill:#CDD5DB;}
	.st1{clip-path:url(#SVGID_2_);fill:#E8F4FA;}
	.st2{clip-path:url(#SVGID_2_);fill:#FFFFFF;}
	.st3{clip-path:url(#SVGID_2_);fill:none;stroke:#45413C;stroke-linecap:round;stroke-linejoin:round;stroke-miterlimit:10;}
	.st4{opacity:0.15;clip-path:url(#SVGID_2_);fill:#45413C;}
	.st5{clip-path:url(#SVGID_2_);fill:#1AA5E2;stroke:#45413C;stroke-linecap:round;stroke-linejoin:round;stroke-miterlimit:10;}
	.st6{clip-path:url(#SVGID_2_);fill:#8CA4B8;stroke:#45413C;stroke-linecap:round;stroke-linejoin:round;stroke-miterlimit:10;}
	.st7{clip-path:url(#SVGID_2_);fill:#C0DCEB;stroke:#45413C;stroke-linecap:round;stroke-linejoin:round;stroke-miterlimit:10;}
	.st8{clip-path:url(#SVGID_2_);fill:#E8F4FA;stroke:#45413C;stroke-linecap:round;stroke-linejoin:round;stroke-miterlimit:10;}
	.st9{clip-path:url(#SVGID_2_);fill:#ADC4D9;stroke:#45413C;stroke-linecap:round;stroke-linejoin:round;stroke-miterlimit:10;}
	.st10{clip-path:url(#SVGID_2_);}
	.st11{fill:#45413C;}
	.st12{clip-path:url(#SVGID_2_);fill:#3A4954;}
</style>
<g>
	<defs>
		<rect id="SVGID_1_" width="500" height="500"/>
	</defs>
	<clipPath id="SVGID_2_">
		<use xlink:href="#SVGID_1_"  style="overflow:visible;"/>
	</clipPath>
	<path class="st0" d="M313.4,440.5c-1.4-13.7-12.9-24.1-26.6-24.1H174.7c-13.7,0-25.2,10.4-26.6,24.1l-10.2,101.9
		c-0.5,4.6,2.3,9,6.7,10.6c55.7,19.9,116.6,19.9,172.3,0c4.4-1.6,7.2-5.9,6.7-10.6L313.4,440.5z"/>
	<path class="st1" d="M325,238.3c1.4-8.4,0-18.6-7.2-23c-16.1-9.9-185.1-15-176.7,40.7l12.6,84.2c2,13.1,13.2,22.8,26.5,22.8h101.4
		c13.1,0,24.2-9.5,26.4-22.3L325,238.3z"/>
	<path class="st2" d="M143.2,270.1c20.1-40.5,160.1-35.4,174.6-26.5c2.5,1.5,4,3.8,5.3,6.4l1.9-11.6c1.4-8.4,0-18.6-7.2-23
		c-16.1-9.9-185.1-15-176.7,40.7L143.2,270.1z"/>
	<path class="st3" d="M325,238.3c1.4-8.4,0-18.6-7.2-23c-16.1-9.9-185.1-15-176.7,40.7l12.6,84.2c2,13.1,13.2,22.8,26.5,22.8h101.4
		c13.1,0,24.2-9.5,26.4-22.3L325,238.3z"/>
	<ellipse class="st4" cx="224" cy="623.3" rx="111.4" ry="16.7"/>
	<path class="st5" d="M290.9,416.5c0-14.8-12-26.7-26.7-26.7h-66.9c-14.8,0-26.7,12-26.7,26.7H290.9z"/>
	<path class="st5" d="M278.4,308.8c-0.3,18.7,9.2,35,23.5,44.8c3.9-4.6,5.4-8.9,6.3-14.4l13.6-82.2
		C297.4,261.7,278.8,283,278.4,308.8z"/>
	<circle class="st6" cx="230.7" cy="356.3" r="33.4"/>
	<rect x="277.5" y="108.9" class="st7" width="40.1" height="53.5"/>
	<path class="st8" d="M317.6,108.9h-40.1V88.8c0-11.1,9-20.1,20.1-20.1c11.1,0,20.1,9,20.1,20.1V108.9z"/>
	
		<rect x="208.7" y="96.4" transform="matrix(0.9952 -9.777488e-02 9.777488e-02 0.9952 -10.9473 22.9616)" class="st7" width="40.1" height="53.5"/>
	<path class="st8" d="M246.2,94.6l-39.9,3.9l-2-20c-1.1-11,7-20.8,18-21.9c11-1.1,20.8,7,21.9,18L246.2,94.6z"/>
	<polygon class="st7" points="147.6,203.8 112.6,223.5 96.7,194.3 131.6,174.6 	"/>
	<path class="st8" d="M131.6,174.6l-35,19.7l-9.8-17.5c-5.4-9.7-2-21.9,7.6-27.3c9.7-5.4,21.9-2,27.3,7.6L131.6,174.6z"/>
	
		<rect x="148.2" y="122.9" transform="matrix(0.9671 -0.2544 0.2544 0.9671 -31.4502 47.574)" class="st7" width="40.1" height="45"/>
	<path class="st8" d="M181.9,118.5l-38.8,10.2l-5.1-19.4c-2.8-10.7,3.6-21.7,14.3-24.5C163,82,174,88.4,176.8,99.1L181.9,118.5z"/>
	<path class="st9" d="M317.6,215.2v-52.9h-40.1v47.1C297.6,210.3,313.1,212.6,317.6,215.2z"/>
	<g class="st10">
		<path class="st11" d="M177.2,250.3c3.1,0,5.7,2.6,5.7,5.7c0,3.1-2.6,5.7-5.7,5.7c-3.1,0-5.7-2.6-5.7-5.7
			C171.5,252.8,174.1,250.3,177.2,250.3 M177.2,249.3c-3.7,0-6.7,3-6.7,6.7s3,6.7,6.7,6.7c3.7,0,6.7-3,6.7-6.7
			S180.9,249.3,177.2,249.3L177.2,249.3z"/>
	</g>
	<g class="st10">
		<path class="st11" d="M284.2,230.2c3.1,0,5.7,2.6,5.7,5.7c0,3.1-2.6,5.7-5.7,5.7c-3.1,0-5.7-2.6-5.7-5.7
			C278.5,232.8,281.1,230.2,284.2,230.2 M284.2,229.2c-3.7,0-6.7,3-6.7,6.7c0,3.7,3,6.7,6.7,6.7s6.7-3,6.7-6.7
			C290.9,232.2,287.9,229.2,284.2,229.2L284.2,229.2z"/>
	</g>
	<g class="st10">
		<path class="st11" d="M177.2,303.8c3.1,0,5.7,2.6,5.7,5.7c0,3.1-2.6,5.7-5.7,5.7c-3.1,0-5.7-2.6-5.7-5.7
			C171.5,306.3,174.1,303.8,177.2,303.8 M177.2,302.8c-3.7,0-6.7,3-6.7,6.7c0,3.7,3,6.7,6.7,6.7c3.7,0,6.7-3,6.7-6.7
			C183.9,305.8,180.9,302.8,177.2,302.8L177.2,302.8z"/>
	</g>
	<path class="st9" d="M337.7,276c-19.2,0-33.4,15-33.4,33.4c0,18.5,15,33.4,33.4,33.4c17.2,0,40.6-20.2,66.4-44.3l-32.8-32.8
		C359.3,272.1,347.4,276,337.7,276z"/>
	<path class="st8" d="M452,254.7c3.6-3,5.3-7.7,4.6-12.3s-3.9-8.5-8.2-10.3c-12.9-5.2-28.2-3.5-39.9,5.8c-2,2.1-4.1,4.1-6.3,6
		l29.2,29.2C438.1,266.8,445.1,260.6,452,254.7z"/>
	<path class="st5" d="M402.1,244c-9.4,8.6-20.1,16.2-30.8,21.8l32.8,32.8c8.8-8.2,17.9-16.9,27.1-25.4L402.1,244z"/>
	<path class="st9" d="M259.1,209.1l-7.7-61.2l-39.9,3.9l5.4,59.7C231,209.8,245.5,209.1,259.1,209.1z"/>
	<path class="st9" d="M208.3,212.5L193.4,162l-38.8,10.2l15.3,49.5C180.9,217.5,194.2,214.5,208.3,212.5z"/>
	<path class="st9" d="M141.1,256c-2-13.2,6.1-22.9,19.6-30l-13.1-22.1l-35,19.7l31.8,54.7L141.1,256z"/>
	<path class="st12" d="M167.5,445h126.4c7.9,0,15.2,2.7,20.6,7.2l-1.2-11.7c-1.4-13.7-12.9-24.1-26.6-24.1H174.7
		c-13.7,0-25.2,10.4-26.6,24.1l-1.2,11.7C152.3,447.7,159.6,445,167.5,445z"/>
	<path class="st3" d="M313.4,440.5c-1.4-13.7-12.9-24.1-26.6-24.1H174.7c-13.7,0-25.2,10.4-26.6,24.1l-10.2,101.9
		c-0.5,4.6,2.3,9,6.7,10.6c55.7,19.9,116.6,19.9,172.3,0c4.4-1.6,7.2-5.9,6.7-10.6L313.4,440.5z"/>
	<g class="st10">
		<path class="st11" d="M230.7,352.2c2.2,0,4.1,1.8,4.1,4.1s-1.8,4.1-4.1,4.1s-4.1-1.8-4.1-4.1S228.5,352.2,230.7,352.2
			 M230.7,351.2c-2.8,0-5.1,2.3-5.1,5.1c0,2.8,2.3,5.1,5.1,5.1c2.8,0,5.1-2.3,5.1-5.1C235.8,353.5,233.5,351.2,230.7,351.2
			L230.7,351.2z"/>
	</g>
</g>
</svg>
